<svg xmlns="http://www.w3.org/2000/svg" width="18" height="19.898" viewBox="0 0 18 19.898">
    <defs>
        <style>
            .cls-1{fill:#7b8ba7}
        </style>
    </defs>
    <path id="Path_10118" d="M17.917 3.125a.818.818 0 0 0-.309-.529 15.38 15.38 0 0 0-17.2.044.723.723 0 0 0-.308.485c0 .088-1.411 10.409 7.542 16.364a2.553 2.553 0 0 0 2.735 0c8.951-5.955 7.584-16.232 7.54-16.364zM9.536 18.209a.93.93 0 0 1-1.059 0A15.848 15.848 0 0 1 1.553 3.7a13.816 13.816 0 0 1 14.908 0 15.743 15.743 0 0 1-6.925 14.509z" class="cls-1" data-name="Path 10118" transform="translate(-.016 .013)"/>
</svg>
