<svg xmlns="http://www.w3.org/2000/svg" width="99.953" height="20" viewBox="0 0 99.953 20">
    <defs>
        <style>
            .cls-1{fill:#3b3b3b}
        </style>
    </defs>
    <path id="Logo" d="M84.051 12.023a7.951 7.951 0 1 1 15.9 0A7.726 7.726 0 0 1 91.889 20a7.564 7.564 0 0 1-7.838-7.977zm3.961 0c0 3.069 1.785 4.575 3.877 4.575 2.066 0 4.045-1.507 4.045-4.575 0-3.095-1.924-4.575-3.99-4.575s-3.932 1.48-3.932 4.575zm-19.025 2.845h3.934a2.567 2.567 0 0 0 2.79 2.066c1.533 0 2.37-.7 2.37-1.591 0-2.761-8.73-1.005-8.73-6.667 0-2.567 2.285-4.63 6.109-4.63 3.737 0 6 2.037 6.221 5.105h-3.738a2.305 2.305 0 0 0-2.6-2.01c-1.448 0-2.2.585-2.2 1.48 0 2.817 8.563 1.057 8.675 6.723C81.82 17.992 79.5 20 75.737 20c-3.876 0-6.583-2.258-6.75-5.132zm-19.079-2.9c0-4.826 3.124-7.922 7.056-7.922A6.113 6.113 0 0 1 62.07 6.5V4.3H66v15.449h-3.93V17.49A6.1 6.1 0 0 1 56.935 20c-3.903 0-7.027-3.208-7.027-8.034zm3.988 0c0 2.929 1.982 4.6 4.074 4.6 2.147 0 4.1-1.617 4.1-4.546s-1.953-4.547-4.1-4.547c-2.092 0-4.074 1.564-4.074 4.492zm-20.782.055c0-4.855 3.179-7.977 7.644-7.977 3.848 0 6.442 2.008 7.279 5.467h-4.21a3.036 3.036 0 0 0-3.1-2.15c-2.176 0-3.627 1.646-3.627 4.659s1.451 4.63 3.627 4.63a2.948 2.948 0 0 0 3.1-2.118h4.21A7.046 7.046 0 0 1 40.758 20c-4.465 0-7.644-3.122-7.644-7.975zM0 9.959A9.78 9.78 0 0 1 9.988 0a9.725 9.725 0 0 1 9.96 9.959 9.747 9.747 0 0 1-9.96 9.985A9.786 9.786 0 0 1 0 9.959zm4.019 0c0 3.961 2.426 6.5 5.969 6.5 3.515 0 5.94-2.539 5.94-6.5S13.5 3.515 9.988 3.515C6.445 3.515 4.019 6 4.019 9.959zm18.827 9.791V4.295h3.907v2.4A5.362 5.362 0 0 1 31.5 4.071v4.1h-1.038c-2.315 0-3.709.892-3.709 3.877v7.7zM7.041 13.728S5.3 12.121 6.27 10.722a1.19 1.19 0 0 0 .924.619s2.5.4 2.956-1.855 3.9-1.4 3.9-1.4.924 3.774-1 5.483a5.094 5.094 0 0 1-3.239 1.342 3.959 3.959 0 0 1-2.774-1.185z" class="cls-1"/>
</svg>
