<svg xmlns="http://www.w3.org/2000/svg" width="18" height="18" viewBox="0 0 18 18">
    <defs>
        <style>
            .cls-1{fill:#7b8ba7}
        </style>
    </defs>
    <path id="Union_15" d="M17858 18829a9 9 0 1 1 9 9 9.016 9.016 0 0 1-9-9zm1.3 0a7.7 7.7 0 1 0 7.7-7.7 7.7 7.7 0 0 0-7.7 7.7zm7.055 3.318v-3.242a.643.643 0 0 1 .648-.648.621.621 0 0 1 .648.648v3.242a.648.648 0 0 1-1.3 0zm-.152-5.8a.8.8 0 1 1 .8.8.8.8 0 0 1-.803-.798z" class="cls-1" data-name="Union 15" transform="translate(-17858 -18820)"/>
</svg>
