<svg xmlns="http://www.w3.org/2000/svg" width="20" height="20" viewBox="0 0 20 20">
    <defs>
        <style>
            .cls-1{fill:none}.cls-2{clip-path:url(#clip-path)}.cls-3{fill:#cadbea}.cls-4{fill:#fff}.cls-5{fill:#3f4a54}
        </style>
        <clipPath id="clip-path">
            <path id="Rectangle_1363" d="M0 0h20v20H0z" class="cls-1" data-name="Rectangle 1363" transform="translate(720 70)"/>
        </clipPath>
    </defs>
    <g id="settings" class="cls-2" transform="translate(-720 -70)">
        <g id="Group_6563" data-name="Group 6563" transform="translate(45 -107.5)">
            <g id="settings-2" data-name="settings" transform="translate(676 179)">
                <g id="Group_6217" data-name="Group 6217" transform="translate(2.218 .494)">
                    <path id="Path_8590" d="M42.5 24.878a6.429 6.429 0 0 0-.554-1.387l1.525-1.545-2.2-2.212-1.525 1.545a5.826 5.826 0 0 0-2.824-.772l-.559-2.107-3 .808.554 2.107a5.774 5.774 0 0 0-2.059 2.085l-2.079-.562L29 25.9l2.079.562a6.151 6.151 0 0 0 .191 1.475 6.429 6.429 0 0 0 .554 1.387L30.3 30.865l2.2 2.212 1.525-1.545a5.826 5.826 0 0 0 2.824.772l.554 2.107 3-.808-.558-2.103a5.774 5.774 0 0 0 2.062-2.089l2.079.562.8-3.037-2.086-.565a5.443 5.443 0 0 0-.2-1.493zm-4.9 4.178a2.716 2.716 0 0 1-3.326-1.949 2.746 2.746 0 0 1 1.923-3.371 2.716 2.716 0 0 1 3.326 1.949 2.766 2.766 0 0 1-1.93 3.372z" class="cls-3" data-name="Path 8590" transform="translate(-29 -18.4)"/>
                </g>
                <g id="Group_6218" data-name="Group 6218" transform="translate(.512 .494)">
                    <path id="Path_8591" d="M32.5 24.878a6.429 6.429 0 0 0-.554-1.387l1.525-1.545-2.2-2.212-1.525 1.545a5.826 5.826 0 0 0-2.824-.772l-.559-2.107-3 .808.554 2.107a5.774 5.774 0 0 0-2.059 2.085l-2.079-.562L19 25.9l2.079.562a6.151 6.151 0 0 0 .191 1.475 6.429 6.429 0 0 0 .554 1.387L20.3 30.865l2.2 2.212 1.525-1.545a5.826 5.826 0 0 0 2.824.772l.554 2.107 3-.808-.558-2.103a5.774 5.774 0 0 0 2.062-2.089l2.079.562.8-3.037-2.086-.565a5.444 5.444 0 0 0-.2-1.493zm-4.9 4.178a2.716 2.716 0 0 1-3.326-1.949 2.746 2.746 0 0 1 1.923-3.371 2.716 2.716 0 0 1 3.326 1.949 2.766 2.766 0 0 1-1.93 3.372z" class="cls-4" data-name="Path 8591" transform="translate(-19 -18.4)"/>
                </g>
                <g id="Group_6219" data-name="Group 6219">
                    <path id="Path_8592" d="M24.914 32.505a.536.536 0 0 1-.5-.386l-.45-1.718a6.357 6.357 0 0 1-2.319-.631L20.4 31.033a.5.5 0 0 1-.727 0l-2.215-2.226a.513.513 0 0 1 0-.736l1.242-1.262a6.912 6.912 0 0 1-.415-1.139 7.368 7.368 0 0 1-.208-1.209L16.381 24a.49.49 0 0 1-.312-.245.543.543 0 0 1-.052-.4l.8-3.032a.5.5 0 0 1 .242-.315.525.525 0 0 1 .4-.053l1.7.456a6.126 6.126 0 0 1 1.7-1.718l-.45-1.718a.539.539 0 0 1 .363-.648l2.994-.806a.531.531 0 0 1 .64.368l.45 1.718a6.357 6.357 0 0 1 2.319.631l1.246-1.262a.529.529 0 0 1 .727 0l2.2 2.226a.513.513 0 0 1 0 .736L30.089 21.2a6.912 6.912 0 0 1 .411 1.14 7.368 7.368 0 0 1 .208 1.209l1.7.456a.531.531 0 0 1 .363.648l-.8 3.032a.5.5 0 0 1-.242.315.524.524 0 0 1-.4.053l-1.7-.456a6.126 6.126 0 0 1-1.7 1.718l.45 1.718a.539.539 0 0 1-.363.648l-2.994.806a.291.291 0 0 1-.108.018zM21.539 28.6a.484.484 0 0 1 .26.07 5.257 5.257 0 0 0 2.562.7.536.536 0 0 1 .5.386l.415 1.595 1.99-.543-.415-1.595a.545.545 0 0 1 .242-.6 5.263 5.263 0 0 0 1.869-1.893.532.532 0 0 1 .588-.245l1.575.421.537-2.016-1.575-.421a.51.51 0 0 1-.381-.508 5.884 5.884 0 0 0-.173-1.35 6.6 6.6 0 0 0-.5-1.262.512.512 0 0 1 .087-.631l1.142-1.157-1.454-1.472-1.142 1.157a.5.5 0 0 1-.623.088 5.257 5.257 0 0 0-2.562-.7.536.536 0 0 1-.5-.386l-.415-1.595-2.025.561.415 1.595a.545.545 0 0 1-.242.6 5.263 5.263 0 0 0-1.869 1.893.532.532 0 0 1-.588.245l-1.575-.421-.537 2.016 1.575.421a.51.51 0 0 1 .381.508 5.884 5.884 0 0 0 .173 1.35 6.6 6.6 0 0 0 .5 1.262.512.512 0 0 1-.087.631l-1.142 1.157L20 29.929l1.16-1.157a.488.488 0 0 1 .379-.172zm2.856-1.315a3.137 3.137 0 0 1-1.61-.438 3.262 3.262 0 0 1-1.506-1.981 3.3 3.3 0 0 1 .329-2.489 3.215 3.215 0 0 1 5.919.789 3.3 3.3 0 0 1-.329 2.489 3.232 3.232 0 0 1-1.956 1.525 3.62 3.62 0 0 1-.848.102zm.71-.631zm-.71-4.872a2.125 2.125 0 0 0-.571.07 2.207 2.207 0 0 0-1.333 1.034 2.274 2.274 0 0 0-.225 1.683 2.228 2.228 0 0 0 1.021 1.35 2.2 2.2 0 0 0 1.662.228 2.207 2.207 0 0 0 1.333-1.034 2.274 2.274 0 0 0 .225-1.683 2.2 2.2 0 0 0-2.113-1.651z" class="cls-5" data-name="Path 8592" transform="translate(-16 -15.505)"/>
                </g>
            </g>
        </g>
    </g>
</svg>
