<svg xmlns="http://www.w3.org/2000/svg" width="20" height="20" viewBox="0 0 20 20">
    <defs>
        <style>
            .cls-1{fill:#3b3b3b}
        </style>
    </defs>
    <path id="Path_10137" d="M19.749 18.678L16.083 15A9.106 9.106 0 0 0 2.64 2.747a9.19 9.19 0 0 0 0 12.892 9.075 9.075 0 0 0 12.221.539l3.666 3.676a.825.825 0 0 0 1.173 0 .769.769 0 0 0 .049-1.176zM3.862 14.414a7.407 7.407 0 0 1 10.461-10.49 7.407 7.407 0 1 1-10.461 10.49z" class="cls-1" data-name="Path 10137" transform="translate(0 -.1)"/>
</svg>
