<svg xmlns="http://www.w3.org/2000/svg" width="60" height="60" viewBox="0 0 60 60">
    <defs>
        <style>
            .cls-1{clip-path:url(#clip-path)}.cls-2{fill:#4c4c4c}
        </style>
        <clipPath id="clip-path">
            <path id="Rectangle_1759" d="M0 0h60v60H0z" data-name="Rectangle 1759" transform="translate(653.8)"/>
        </clipPath>
    </defs>
    <g id="Asset9" transform="translate(-653.8)">
        <g id="Group_8257" class="cls-1" data-name="Group 8257">
            <path id="Path_11839" d="M703.8 47.5l-7.5-7.5a18.49 18.49 0 0 0-1.2-25 18.6 18.6 0 1 0-1.3 27.4l7.5 7.5a1.69 1.69 0 0 0 2.4 0 1.561 1.561 0 0 0 .1-2.4zm-32.6-8.7a15.149 15.149 0 0 1 0-21.4 15.315 15.315 0 0 1 10.7-4.4 15.119 15.119 0 1 1-10.7 25.8z" class="cls-2" data-name="Path 11839"/>
        </g>
    </g>
</svg>
