<svg xmlns="http://www.w3.org/2000/svg" width="20" height="19.276" viewBox="0 0 20 19.276">
    <defs>
        <style>
            .cls-1{fill:#7b8ba7}
        </style>
    </defs>
    <path id="Path_10142" d="M19.458 9.376a2.131 2.131 0 0 0-1.177-3.62l-4.012-.566a.675.675 0 0 1-.48-.349L12 1.221a2.135 2.135 0 0 0-3.838-.044L6.375 4.841a.675.675 0 0 1-.48.349l-4.012.567A2.019 2.019 0 0 0 .183 7.2a2.211 2.211 0 0 0 .523 2.176l2.878 2.835a.645.645 0 0 1 .174.567L3.1 16.79a2.164 2.164 0 0 0 .829 2.093 2.272 2.272 0 0 0 1.265.392 2.026 2.026 0 0 0 1-.262l3.576-1.875a.647.647 0 0 1 .567 0l3.576 1.875a2.117 2.117 0 0 0 3.053-2.268l-.7-4.012a.687.687 0 0 1 .174-.567zm-3.968 1.745A2.122 2.122 0 0 0 14.879 13l.7 4.012a.674.674 0 0 1-.262.611.549.549 0 0 1-.654.044l-3.576-1.875a2.217 2.217 0 0 0-1.962 0l-3.578 1.87a.632.632 0 0 1-.654-.044.674.674 0 0 1-.262-.611L5.329 13a2.122 2.122 0 0 0-.611-1.875L1.753 8.286a.71.71 0 0 1-.174-.654A.619.619 0 0 1 2.1 7.2l4.012-.567a2.059 2.059 0 0 0 1.615-1.182l1.788-3.62a.635.635 0 0 1 1.134 0l1.788 3.62a2.265 2.265 0 0 0 1.614 1.177l4.012.567a.619.619 0 0 1 .523.436.608.608 0 0 1-.174.654z" class="cls-1" data-name="Path 10142" transform="translate(-.092)"/>
</svg>
