<svg xmlns="http://www.w3.org/2000/svg" width="15" height="20" viewBox="0 0 15 20">
    <defs>
        <style>
            .cls-1{fill:#3b3b3b}
        </style>
    </defs>
    <path id="Union_16" d="M4.388 19.18a.607.607 0 0 1-.209-.82.633.633 0 0 1 .834-.207 5.262 5.262 0 0 0 5.036 0 .585.585 0 0 1 .8.207.6.6 0 0 1-.209.82 5.884 5.884 0 0 1-3.021.82 7.09 7.09 0 0 1-3.231-.82zm-2.563-2.133a1.87 1.87 0 0 1-1.624-1 1.763 1.763 0 0 1 .159-1.875 4.632 4.632 0 0 0 .938-2.8V8.543A6.02 6.02 0 0 1 4.427 3.27v-.239a3.089 3.089 0 0 1 6.176 0v.239a6.066 6.066 0 0 1 3.13 5.273v2.832a4.631 4.631 0 0 0 .937 2.8 1.669 1.669 0 0 1 .077 1.879 1.776 1.776 0 0 1-1.625 1zm.978-8.5v2.832a6.075 6.075 0 0 1-1.22 3.594.446.446 0 0 0-.043.438.379.379 0 0 0 .369.242h11.3a.384.384 0 0 0 .368-.242.666.666 0 0 0 .039-.437 6.073 6.073 0 0 1-1.218-3.594V8.543a4.8 4.8 0 0 0-9.592 0zm6.378-5.836a1.618 1.618 0 0 0-1.626-1.316 1.652 1.652 0 0 0-1.623 1.316 5.657 5.657 0 0 1 3.249 0z" class="cls-1" data-name="Union 16"/>
</svg>
