<svg xmlns="http://www.w3.org/2000/svg" width="20" height="19.535" viewBox="0 0 20 19.535">
    <defs>
        <style>
            .cls-1{fill:#3b3b3b}
        </style>
    </defs>
    <path id="Union_17" d="M.626 10.16A9.374 9.374 0 1 1 10 19.535 9.4 9.4 0 0 1 .626 10.16zm1.449 0A7.925 7.925 0 1 0 10 2.235a7.939 7.939 0 0 0-7.925 7.925zm7.925.725a.72.72 0 0 1-.727-.725V6.367a.725.725 0 0 1 1.449 0v3.067h1.918a.75.75 0 0 1 .727.727.72.72 0 0 1-.727.725zm8.648-6.99a8.189 8.189 0 0 0-2.6-2.512.763.763 0 0 1-.254-1.023.761.761 0 0 1 1.024-.26 9.78 9.78 0 0 1 3.068 2.984.721.721 0 0 1-.256 1.026.686.686 0 0 1-.383.129.737.737 0 0 1-.597-.344zM.327 4.11a.746.746 0 0 1-.211-1.022A9.76 9.76 0 0 1 3.185.1a.8.8 0 0 1 1.021.26.75.75 0 0 1-.256 1.023 8.169 8.169 0 0 0-2.6 2.512.805.805 0 0 1-.639.344.687.687 0 0 1-.384-.129z" class="cls-1" data-name="Union 17"/>
</svg>
