<svg xmlns="http://www.w3.org/2000/svg" width="18" height="15.387" viewBox="0 0 18 15.387">
    <defs>
        <style>
            .cls-1{fill:#3b3b3b}
        </style>
    </defs>
    <path id="Union_11" d="M17869.467 18834.986l-2.395-2.467h-6.352a2.742 2.742 0 0 1-2.721-2.723v-7.076a2.742 2.742 0 0 1 2.721-2.721h12.557a2.718 2.718 0 0 1 2.723 2.721v7.041a2.744 2.744 0 0 1-2.723 2.723h-1.488v1.523a1.351 1.351 0 0 1-.834 1.27 1.133 1.133 0 0 1-.508.109 1.4 1.4 0 0 1-.98-.4zm-10.232-12.266v7.076a1.494 1.494 0 0 0 1.486 1.488h6.643a.68.68 0 0 1 .436.182l2.539 2.648c0 .037.037.072.109.037s.072-.074.072-.109v-2.141a.612.612 0 0 1 .617-.617h2.141a1.5 1.5 0 0 0 1.488-1.488h.037v-7.076a1.5 1.5 0 0 0-1.49-1.486h-12.592a1.493 1.493 0 0 0-1.487 1.487zm11.178 3.557a.8.8 0 1 1 .8.8.8.8 0 0 1-.801-.8zm-4.211 0a.8.8 0 1 1 .8.8.8.8 0 0 1-.802-.8zm-4.209 0a.8.8 0 1 1 .8.8.8.8 0 0 1-.801-.8z" class="cls-1" data-name="Union 11" transform="translate(-17858 -18820)"/>
</svg>
