<svg xmlns="http://www.w3.org/2000/svg" id="Group_8150" width="25" height="25" data-name="Group 8150" viewBox="0 0 25 25">
    <defs>
        <style>
            .cls-1{fill:#7b8ba7}.cls-2{clip-path:url(#clip-path)}
        </style>
        <clipPath id="clip-path">
            <path id="Rectangle_1736" d="M0 0h25v25H0z" class="cls-1" data-name="Rectangle 1736"/>
        </clipPath>
    </defs>
    <g id="Group_8137" class="cls-2" data-name="Group 8137">
        <path id="Path_11799" d="M138.767 107.4h-4.542a1.627 1.627 0 0 0-1.625 1.625v4.542a1.627 1.627 0 0 0 1.625 1.625h4.542a1.627 1.627 0 0 0 1.625-1.625v-4.542a1.627 1.627 0 0 0-1.625-1.625zm.167 6.125a.179.179 0 0 1-.167.167h-4.542a.179.179 0 0 1-.167-.167v-4.542a.179.179 0 0 1 .167-.167h4.542a.179.179 0 0 1 .167.167z" class="cls-1" data-name="Path 11799" transform="translate(-128.683 -103.442)"/>
        <path id="Path_11800" d="M161.167 107.4h-4.542a1.627 1.627 0 0 0-1.625 1.625v4.542a1.627 1.627 0 0 0 1.625 1.625h4.542a1.627 1.627 0 0 0 1.625-1.625v-4.542a1.627 1.627 0 0 0-1.625-1.625zm.167 6.125a.179.179 0 0 1-.167.167h-4.542a.179.179 0 0 1-.167-.167v-4.542a.179.179 0 0 1 .167-.167h4.542a.179.179 0 0 1 .167.167z" class="cls-1" data-name="Path 11800" transform="translate(-141.75 -103.442)"/>
        <path id="Path_11801" d="M138.767 129.8h-4.542a1.627 1.627 0 0 0-1.625 1.625v4.542a1.627 1.627 0 0 0 1.625 1.625h4.542a1.627 1.627 0 0 0 1.625-1.625v-4.542a1.627 1.627 0 0 0-1.625-1.625zm.167 6.125a.179.179 0 0 1-.167.167h-4.542a.179.179 0 0 1-.167-.167v-4.542a.179.179 0 0 1 .167-.167h4.542a.179.179 0 0 1 .167.167z" class="cls-1" data-name="Path 11801" transform="translate(-128.683 -116.508)"/>
        <path id="Path_11802" d="M161.167 129.8h-4.542a1.627 1.627 0 0 0-1.625 1.625v4.542a1.627 1.627 0 0 0 1.625 1.625h4.542a1.627 1.627 0 0 0 1.625-1.625v-4.542a1.627 1.627 0 0 0-1.625-1.625zm.167 6.125a.179.179 0 0 1-.167.167h-4.542a.179.179 0 0 1-.167-.167v-4.542a.179.179 0 0 1 .167-.167h4.542a.179.179 0 0 1 .167.167z" class="cls-1" data-name="Path 11802" transform="translate(-141.75 -116.508)"/>
    </g>
</svg>
