<svg xmlns="http://www.w3.org/2000/svg" width="18" height="17.888" viewBox="0 0 18 17.888">
    <defs>
        <style>
            .cls-1{fill:#7b8ba7}
        </style>
    </defs>
    <path id="Path_10113" d="M17.6 8.055L10.012.435A1.373 1.373 0 0 0 9 0a1.559 1.559 0 0 0-1.02.4L.4 8.019a1.47 1.47 0 0 0-.29 1.56 1.379 1.379 0 0 0 1.306.871h1.013v6.023a1.417 1.417 0 0 0 1.415 1.415h2.25a1.417 1.417 0 0 0 1.415-1.415v-2.467a1.451 1.451 0 1 1 2.9 0v2.467a1.417 1.417 0 0 0 1.415 1.415h2.322a1.417 1.417 0 0 0 1.415-1.415V10.45h1.019a1.379 1.379 0 0 0 1.306-.871 1.4 1.4 0 0 0-.286-1.524zm-.871 1.052c-.036.036-.073.109-.145.109h-1.673a.612.612 0 0 0-.617.617v6.64a.194.194 0 0 1-.181.181h-2.25a.194.194 0 0 1-.181-.181v-2.467a2.721 2.721 0 0 0-5.443 0v2.467a.194.194 0 0 1-.181.181H3.807a.194.194 0 0 1-.181-.181v-6.64a.612.612 0 0 0-.617-.617h-1.6a.162.162 0 0 1-.145-.109c-.033-.036-.033-.107.036-.181l7.584-7.62a.181.181 0 0 1 .218 0l7.584 7.62c.075.074.075.145.039.181z" class="cls-1" data-name="Path 10113" transform="translate(.004)"/>
</svg>
