<svg xmlns="http://www.w3.org/2000/svg" width="18" height="15.527" viewBox="0 0 18 15.527">
    <defs>
        <style>
            .cls-1{fill:#7b8ba7}
        </style>
    </defs>
    <path id="Union_13" d="M17867.729 18835.529h-5.027a2.242 2.242 0 0 1-2.236-2.236v-4.727h-.6a1.925 1.925 0 0 1-1.562-.857 1.9 1.9 0 0 1-.148-1.787l1.973-4.543a2.178 2.178 0 0 1 2.049-1.377h9.645a2.273 2.273 0 0 1 2.047 1.377l1.975 4.543a1.927 1.927 0 0 1-1.75 2.645h-.6v4.727a2.241 2.241 0 0 1-2.234 2.236zm-5.959-8.9v6.664a.986.986 0 0 0 .969.971h8.564a.987.987 0 0 0 .969-.971v-6.664a.633.633 0 0 1 1.266 0v.633h.6a.542.542 0 0 0 .484-.26.509.509 0 0 0 .037-.557l-1.975-4.582a.968.968 0 0 0-.895-.6h-1.859a3 3 0 0 1-2.943 2.383 3.033 3.033 0 0 1-2.941-2.383h-1.861a.986.986 0 0 0-.895.6l-1.937 4.582a.6.6 0 0 0 .037.557.635.635 0 0 0 .484.26h.633v-.633a.654.654 0 0 1 .635-.633.628.628 0 0 1 .628.633zm5.25-4.281a1.749 1.749 0 0 0 1.6-1.08h-3.2a1.714 1.714 0 0 0 1.6 1.08zm-.707 7.3a.706.706 0 0 1 .707-.705.733.733 0 0 1 .709.705.708.708 0 1 1-1.416 0zm0-3.2a.707.707 0 0 1 .707-.709.733.733 0 0 1 .709.709.708.708 0 0 1-1.416 0z" class="cls-1" data-name="Union 13" transform="translate(-17858 -18820.002)"/>
</svg>
