<svg xmlns="http://www.w3.org/2000/svg" width="15" height="18" viewBox="0 0 15 18">
    <defs>
        <style>
            .cls-1{fill:#7b8ba7}
        </style>
    </defs>
    <path id="Union_19" d="M13.234 17.018V.982A.93.93 0 0 1 14.116 0 .948.948 0 0 1 15 1.039v15.979a.888.888 0 1 1-1.766 0zm-6.646 0V7.154a.932.932 0 0 1 .885-.982.9.9 0 0 1 .883.982v9.863a.927.927 0 0 1-.882.983.927.927 0 0 1-.885-.982zm-6.588 0v-3.747a.928.928 0 0 1 .884-.982.964.964 0 0 1 .88.982v3.746a.963.963 0 0 1-.88.983.925.925 0 0 1-.884-.982z" class="cls-1" data-name="Union 19"/>
</svg>
